<svg t="1719567570527" class="icon" viewBox="0 0 1024 1024" version="1.1" xmlns="http://www.w3.org/2000/svg" p-id="4283" width="16" height="16"><path d="M341.333 256c0-94.257 76.41-170.667 170.667-170.667S682.667 161.743 682.667 256h170.666C876.897 256 896 275.103 896 298.667s-19.103 42.666-42.667 42.666H170.667c-23.564 0-42.667-19.102-42.667-42.666C128 275.103 147.103 256 170.667 256h170.666z m85.334 0h170.666c0-47.128-38.205-85.333-85.333-85.333S426.667 208.872 426.667 256z m298.666 171.372c0-23.564 19.103-42.666 42.667-42.666s42.667 19.102 42.667 42.666v417.025c0 50.03-34.293 94.27-82.667 94.27H296c-48.374 0-82.667-44.24-82.667-94.27v-417.73C213.333 403.103 232.436 384 256 384s42.667 19.103 42.667 42.667v417.73c0 6.97 1.524 8.936-2.667 8.936h432c-4.19 0-2.667-1.966-2.667-8.936V427.372z m-170.666 33.42c0-23.564 19.102-42.667 42.666-42.667 23.564 0 42.667 19.103 42.667 42.667v298.666c0 23.564-19.103 42.667-42.667 42.667s-42.666-19.103-42.666-42.667V460.792z m-170.667 0c0-23.564 19.103-42.667 42.667-42.667s42.666 19.103 42.666 42.667v298.666c0 23.564-19.102 42.667-42.666 42.667-23.564 0-42.667-19.103-42.667-42.667V460.792z" fill="#0081CC" p-id="4284"></path></svg>